# xmcd
#
# Track frame offsets:
#	150
#	14450
#	17433
#	18992
#	20678
#	22812
#	23719
#	24587
#	25411
#	27672
#	29212
#	31309
#	33969
#	34737
#	37459
#	38836
#	39793
#	40748
#	42333
#	45967
#	49201
#	53882
#	55259
#	57422
#	60559
#	63320
#	65365
#	66629
#	68360
#
# Disc length: 1028 seconds
#
# Revision: 0
# Processed by: cddbd v1.5.1PL0 Copyright (c) Steve Scherf et al.
# Submitted via: audiograbber 1.83.01
#
DISCID=8604021d
DTITLE=Tomas Linka - Country foukaci harmonika
DYEAR=1999
DGENRE=Country
TTITLE0=Lily Langtry
TTITLE1=Zvony
TTITLE2=Akordova harmonika
TTITLE3=Chordomonica
TTITLE4=Chromaticka harmonika
TTITLE5=Akord c dur na diatonicke harmonice
TTITLE6=Dominantni akord g dur
TTITLE7=Subdominantni f dur
TTITLE8=He Is A Jolly Good Fellow
TTITLE9=Slunce je na poledne
TTITLE10=Banks Of The Ohio
TTITLE11=Na Okor je cesta
TTITLE12=Akordy k pisni na Okor je cesta
TTITLE13=Cely doprovod k pisni na Okor je cesta
TTITLE14=Motiv z filmu Tenkrat na zapade
TTITLE15=Vibrato
TTITLE16=Stupnice c dur na diatonicke harmonice
TTITLE17=Neuplna stupnice v g dur
TTITLE18=Jesse James - pomalu
TTITLE19=Zatracenej zivot - pomalu
TTITLE20=Pampelisky - pomalu
TTITLE21=Leta jdou
TTITLE22=Sundej z hodin zavazi
TTITLE23=Zbohem lasko
TTITLE24=Uz z hor zni zvon
TTITLE25=Poupata
TTITLE26=Neni kam se hnat - predehra
TTITLE27=Tak ja jdu dal
TTITLE28=Orange Blossom Special
EXTD=
EXTT0=
EXTT1=
EXTT2=
EXTT3=
EXTT4=
EXTT5=
EXTT6=
EXTT7=
EXTT8=
EXTT9=
EXTT10=
EXTT11=
EXTT12=
EXTT13=
EXTT14=
EXTT15=
EXTT16=
EXTT17=
EXTT18=
EXTT19=
EXTT20=
EXTT21=
EXTT22=
EXTT23=
EXTT24=
EXTT25=
EXTT26=
EXTT27=
EXTT28=
PLAYORDER=
